<mxfile host="drawio-plugin" modified="2025-03-01T16:01:57.508Z" agent="5.0 (Windows NT 6.2; Win64; x64) AppleWebKit/537.36 (KHTML, like Gecko) Chrome/104.0.5112.102 Safari/537.36" etag="b-DzXokzeZ4fedlDbtc1" version="20.5.3" type="embed"><diagram id="23iRSUPoRavnBvh4doch" name="Page-1"><mxGraphModel dx="-2255" dy="-6410" grid="1" gridSize="10" guides="1" tooltips="1" connect="1" arrows="1" fold="1" page="1" pageScale="1" pageWidth="827" pageHeight="1169" math="0" shadow="0"><root><mxCell id="0"/><mxCell id="1" parent="0"/><mxCell id="2" style="edgeStyle=orthogonalEdgeStyle;rounded=0;orthogonalLoop=1;jettySize=auto;html=1;entryX=0;entryY=0.5;entryDx=0;entryDy=0;endArrow=none;startFill=0;" edge="1" parent="1"><mxGeometry relative="1" as="geometry"><mxPoint x="2575.9100000000003" y="7830" as="sourcePoint"/><mxPoint x="2825.9100000000003" y="7830" as="targetPoint"/></mxGeometry></mxCell><mxCell id="3" value="User" style="shape=umlActor;verticalLabelPosition=bottom;verticalAlign=top;html=1;outlineConnect=0;" vertex="1" parent="1"><mxGeometry x="2535.9100000000003" y="7790" width="35" height="70" as="geometry"/></mxCell><mxCell id="4" value=":Frontend" style="rounded=0;whiteSpace=wrap;html=1;" vertex="1" parent="1"><mxGeometry x="2815.0000000000005" y="7805" width="130.91" height="40" as="geometry"/></mxCell><mxCell id="5" value="" style="endArrow=classic;html=1;rounded=0;" edge="1" parent="1"><mxGeometry width="50" height="50" relative="1" as="geometry"><mxPoint x="2585.9100000000003" y="7815" as="sourcePoint"/><mxPoint x="2805.9100000000003" y="7815" as="targetPoint"/></mxGeometry></mxCell><mxCell id="6" value="" style="endArrow=classic;html=1;rounded=0;dashed=1;" edge="1" parent="1"><mxGeometry width="50" height="50" relative="1" as="geometry"><mxPoint x="2795.9100000000003" y="7845" as="sourcePoint"/><mxPoint x="2585.9100000000003" y="7845" as="targetPoint"/></mxGeometry></mxCell><mxCell id="7" value="&amp;nbsp;:Router" style="rounded=0;whiteSpace=wrap;html=1;" vertex="1" parent="1"><mxGeometry x="3275.9100000000003" y="7805" width="130.91" height="40" as="geometry"/></mxCell><mxCell id="8" style="edgeStyle=orthogonalEdgeStyle;rounded=0;orthogonalLoop=1;jettySize=auto;html=1;entryX=0;entryY=0.5;entryDx=0;entryDy=0;endArrow=none;startFill=0;" edge="1" parent="1" target="7"><mxGeometry relative="1" as="geometry"><mxPoint x="2955.9100000000003" y="7825" as="sourcePoint"/><mxPoint x="3271.82" y="7825" as="targetPoint"/></mxGeometry></mxCell><mxCell id="9" value="" style="endArrow=classic;html=1;rounded=0;" edge="1" parent="1"><mxGeometry width="50" height="50" relative="1" as="geometry"><mxPoint x="2965.9100000000003" y="7810" as="sourcePoint"/><mxPoint x="3265.9100000000003" y="7810" as="targetPoint"/></mxGeometry></mxCell><mxCell id="10" value=":ClassController&amp;nbsp;" style="rounded=0;whiteSpace=wrap;html=1;" vertex="1" parent="1"><mxGeometry x="3766.82" y="7805" width="130.91" height="40" as="geometry"/></mxCell><mxCell id="11" style="edgeStyle=orthogonalEdgeStyle;rounded=0;orthogonalLoop=1;jettySize=auto;html=1;entryX=0;entryY=0.5;entryDx=0;entryDy=0;endArrow=none;startFill=0;" edge="1" parent="1" target="10"><mxGeometry relative="1" as="geometry"><mxPoint x="3406.82" y="7825" as="sourcePoint"/><mxPoint x="3611.82" y="7825" as="targetPoint"/></mxGeometry></mxCell><mxCell id="12" value="" style="endArrow=classic;html=1;rounded=0;dashed=1;" edge="1" parent="1"><mxGeometry width="50" height="50" relative="1" as="geometry"><mxPoint x="3745.9100000000003" y="7840" as="sourcePoint"/><mxPoint x="3425.9100000000003" y="7840" as="targetPoint"/></mxGeometry></mxCell><mxCell id="13" value=":ClassService&amp;nbsp;" style="rounded=0;whiteSpace=wrap;html=1;" vertex="1" parent="1"><mxGeometry x="4226.82" y="7805" width="130.91" height="40" as="geometry"/></mxCell><mxCell id="14" style="edgeStyle=orthogonalEdgeStyle;rounded=0;orthogonalLoop=1;jettySize=auto;html=1;entryX=0;entryY=0.5;entryDx=0;entryDy=0;endArrow=none;startFill=0;" edge="1" parent="1" target="13"><mxGeometry relative="1" as="geometry"><mxPoint x="3897.73" y="7825" as="sourcePoint"/><mxPoint x="4102.73" y="7825" as="targetPoint"/></mxGeometry></mxCell><mxCell id="15" value="" style="endArrow=classic;html=1;rounded=0;" edge="1" parent="1"><mxGeometry width="50" height="50" relative="1" as="geometry"><mxPoint x="3922.73" y="7810" as="sourcePoint"/><mxPoint x="4216.82" y="7810" as="targetPoint"/></mxGeometry></mxCell><mxCell id="16" value="" style="endArrow=classic;html=1;rounded=0;dashed=1;" edge="1" parent="1"><mxGeometry width="50" height="50" relative="1" as="geometry"><mxPoint x="4216.82" y="7840" as="sourcePoint"/><mxPoint x="3916.82" y="7840" as="targetPoint"/></mxGeometry></mxCell><mxCell id="17" style="edgeStyle=orthogonalEdgeStyle;rounded=0;orthogonalLoop=1;jettySize=auto;html=1;endArrow=none;startFill=0;" edge="1" parent="1" source="18"><mxGeometry relative="1" as="geometry"><mxPoint x="5106.820000000001" y="7825" as="targetPoint"/></mxGeometry></mxCell><mxCell id="18" value=":ClassRepository" style="rounded=0;whiteSpace=wrap;html=1;" vertex="1" parent="1"><mxGeometry x="4566.820000000001" y="7805" width="130.91" height="40" as="geometry"/></mxCell><mxCell id="19" style="edgeStyle=orthogonalEdgeStyle;rounded=0;orthogonalLoop=1;jettySize=auto;html=1;entryX=0;entryY=0.5;entryDx=0;entryDy=0;endArrow=none;startFill=0;" edge="1" parent="1" target="18"><mxGeometry relative="1" as="geometry"><mxPoint x="4357.73" y="7825" as="sourcePoint"/><mxPoint x="4562.7300000000005" y="7825" as="targetPoint"/></mxGeometry></mxCell><mxCell id="20" value="" style="endArrow=classic;html=1;rounded=0;" edge="1" parent="1"><mxGeometry width="50" height="50" relative="1" as="geometry"><mxPoint x="4382.73" y="7810" as="sourcePoint"/><mxPoint x="4542.7300000000005" y="7810" as="targetPoint"/></mxGeometry></mxCell><mxCell id="21" value="" style="endArrow=classic;html=1;rounded=0;dashed=1;" edge="1" parent="1"><mxGeometry width="50" height="50" relative="1" as="geometry"><mxPoint x="4546.820000000001" y="7840" as="sourcePoint"/><mxPoint x="4386.82" y="7840" as="targetPoint"/></mxGeometry></mxCell><mxCell id="22" value="1. GET /api/classes?joined=true&lt;div&gt;19. GET /api/courses?classID={classID}&lt;/div&gt;&lt;div&gt;37. GET /api/quizzes?courseID={courseID}&lt;/div&gt;&lt;div&gt;53. DELETE /api/quizzes?quizID={quizID}&amp;nbsp;&lt;/div&gt;" style="text;html=1;align=center;verticalAlign=middle;resizable=0;points=[];autosize=1;strokeColor=none;fillColor=none;" vertex="1" parent="1"><mxGeometry x="2986.73" y="7730" width="250" height="70" as="geometry"/></mxCell><mxCell id="23" value="&amp;nbsp;:Database" style="rounded=0;whiteSpace=wrap;html=1;" vertex="1" parent="1"><mxGeometry x="5095.910000000001" y="7810" width="130.91" height="40" as="geometry"/></mxCell><mxCell id="24" value="&lt;div&gt;Delete Quiz&lt;/div&gt;" style="text;html=1;align=center;verticalAlign=middle;whiteSpace=wrap;rounded=0;fontSize=20;" vertex="1" parent="1"><mxGeometry x="4868.860000000001" y="7370" width="345" height="30" as="geometry"/></mxCell><mxCell id="25" value="" style="endArrow=classic;html=1;rounded=0;dashed=1;entryX=0.269;entryY=-0.044;entryDx=0;entryDy=0;entryPerimeter=0;" edge="1" parent="1"><mxGeometry width="50" height="50" relative="1" as="geometry"><mxPoint x="3265.9100000000003" y="7841" as="sourcePoint"/><mxPoint x="2965.440000000001" y="7841.04" as="targetPoint"/></mxGeometry></mxCell><mxCell id="26" value="" style="endArrow=classic;html=1;rounded=0;" edge="1" parent="1"><mxGeometry width="50" height="50" relative="1" as="geometry"><mxPoint x="4716.820000000001" y="7809.38" as="sourcePoint"/><mxPoint x="5086.820000000001" y="7810" as="targetPoint"/></mxGeometry></mxCell><mxCell id="27" value="" style="endArrow=classic;html=1;rounded=0;dashed=1;" edge="1" parent="1"><mxGeometry width="50" height="50" relative="1" as="geometry"><mxPoint x="5076.820000000001" y="7840" as="sourcePoint"/><mxPoint x="4716.820000000001" y="7840" as="targetPoint"/></mxGeometry></mxCell><mxCell id="28" value="&amp;nbsp;" style="text;html=1;align=center;verticalAlign=middle;resizable=0;points=[];autosize=1;strokeColor=none;fillColor=none;" vertex="1" parent="1"><mxGeometry x="3505.9100000000003" y="7855" width="30" height="30" as="geometry"/></mxCell><mxCell id="29" value="&lt;div&gt;&lt;span style=&quot;background-color: transparent; color: light-dark(rgb(0, 0, 0), rgb(255, 255, 255));&quot;&gt;11.&lt;/span&gt;&lt;span style=&quot;background-color: transparent; color: light-dark(rgb(0, 0, 0), rgb(255, 255, 255));&quot;&gt;&amp;nbsp;errorResponse(404, &quot;ไม่พบข้อมูล class&quot;)&lt;/span&gt;&lt;/div&gt;&lt;div&gt;16. successResponse(200, classList)&lt;/div&gt;&lt;div&gt;29.&amp;nbsp;&lt;span style=&quot;background-color: transparent; color: light-dark(rgb(0, 0, 0), rgb(255, 255, 255));&quot;&gt;errorResponse(404, &quot;ไม่พบข้อมูล course&quot;)&lt;/span&gt;&lt;/div&gt;&lt;div&gt;&lt;span style=&quot;background-color: transparent; color: light-dark(rgb(0, 0, 0), rgb(255, 255, 255));&quot;&gt;34&lt;/span&gt;&lt;span style=&quot;background-color: transparent; color: light-dark(rgb(0, 0, 0), rgb(255, 255, 255));&quot;&gt;. successResponse(200, courseList)&lt;/span&gt;&lt;/div&gt;&lt;div&gt;&lt;span style=&quot;background-color: transparent; color: light-dark(rgb(0, 0, 0), rgb(255, 255, 255));&quot;&gt;45&lt;/span&gt;&lt;span style=&quot;background-color: transparent; color: light-dark(rgb(0, 0, 0), rgb(255, 255, 255));&quot;&gt;. errorResponse(404, &quot;ไม่พบข้อมู, quiz&quot;)&lt;/span&gt;&lt;/div&gt;&lt;div&gt;&lt;span style=&quot;background-color: transparent; color: light-dark(rgb(0, 0, 0), rgb(255, 255, 255));&quot;&gt;50. successResponse(200, quizData)&lt;/span&gt;&lt;/div&gt;&lt;div&gt;&lt;div&gt;81. errorResponse(500, &quot;ไม่สามารถลบ quiz ได้&quot;)&lt;/div&gt;&lt;div&gt;&lt;span style=&quot;background-color: transparent; color: light-dark(rgb(0, 0, 0), rgb(255, 255, 255));&quot;&gt;86. successResponse(200, &quot;ลบ quiz สำเร็จ&quot;)&lt;/span&gt;&lt;/div&gt;&lt;/div&gt;&lt;div&gt;&lt;span style=&quot;color: rgba(0, 0, 0, 0); font-family: monospace; font-size: 0px; text-align: start;&quot;&gt;%3CmxGraphModel%3E%3Croot%3E%3CmxCell%20id%3D%220%22%2F%3E%3CmxCell%20id%3D%221%22%20parent%3D%220%22%2F%3E%3CmxCell%20id%3D%222%22%20value%3D%2256.%20successResquest(200%2C%20quizList)%22%20style%3D%22text%3Bhtml%3D1%3Balign%3Dcenter%3BverticalAlign%3Dmiddle%3Bresizable%3D0%3Bpoints%3D%5B%5D%3Bautosize%3D1%3BstrokeColor%3Dnone%3BfillColor%3Dnone%3B%22%20vertex%3D%221%22%20parent%3D%221%22%3E%3CmxGeometry%20x%3D%225775.37%22%20y%3D%225220%22%20width%3D%22210%22%20height%3D%2230%22%20as%3D%22geometry%22%2F%3E%3C%2FmxCell%3E%3C%2Froot%3E%3C%2FmxGraphMo&lt;/span&gt;&lt;/div&gt;&lt;div&gt;&lt;span style=&quot;background-color: transparent; color: light-dark(rgb(0, 0, 0), rgb(255, 255, 255));&quot;&gt;&lt;/span&gt;&lt;span style=&quot;color: rgba(0, 0, 0, 0); font-family: monospace; font-size: 0px; text-align: start; background-color: transparent;&quot;&gt;45.%3CmxGraphModel%3E%3Croot%3E%3CmxCell%20id%3D%220%22%2F%3E%3CmxCell%20id%3D%221%22%20parent%3D%220%22%2F%3E%3CmxCell%20id%3D%222%22%20value%3D%2256.%20successResquest(200%2C%20quizList)%22%20style%3D%22text%3Bhtml%3D1%3Balign%3Dcenter%3BverticalAlign%3Dmiddle%3Bresizable%3D0%3Bpoints%3D%5B%5D%3Bautosize%3D1%3BstrokeColor%3Dnone%3BfillColor%3Dnone%3B%22%20vertex%3D%221%22%20parent%3D%221%22%3E%3CmxGeometry%20x%3D%225775.37%22%20y%3D%225220%22%20width%3D%22210%22%20height%3D%2230%22%20as%3D%22geometry%22%2F%3E%3C%2FmxCell%3E%3C%2Froot%3E%3C%2FmxGraphModel%3&lt;/span&gt;&lt;/div&gt;" style="text;html=1;align=center;verticalAlign=middle;resizable=0;points=[];autosize=1;strokeColor=none;fillColor=none;" vertex="1" parent="1"><mxGeometry x="2976.73" y="7845" width="270" height="160" as="geometry"/></mxCell><mxCell id="30" value="12. [ไม่พบข้อมูล class ]&lt;div&gt;17. แสดงรายการ class&lt;/div&gt;&lt;div&gt;30. แสดงข้อความ &quot;ไม่พบข้อมูล course&quot;&lt;/div&gt;&lt;div&gt;35. แสดงรายการ course&lt;/div&gt;&lt;div&gt;46. แสดงข้อความ &quot;ไม่พบข้อมูล quiz&quot;&lt;/div&gt;&lt;div&gt;51. แสดงรายการ quiz&lt;/div&gt;&lt;div&gt;82. แสดงข้อคสวาม &quot;ไม่สามารถลบ quiz ได้&quot;&lt;/div&gt;&lt;div&gt;87. แสดงข้อความ &quot;ลบ quiz สำเร็จ&quot;&lt;/div&gt;" style="text;html=1;align=center;verticalAlign=middle;resizable=0;points=[];autosize=1;strokeColor=none;fillColor=none;" vertex="1" parent="1"><mxGeometry x="2585.0000000000005" y="7865" width="240" height="130" as="geometry"/></mxCell><mxCell id="31" style="edgeStyle=orthogonalEdgeStyle;rounded=0;orthogonalLoop=1;jettySize=auto;html=1;entryX=0.5;entryY=1;entryDx=0;entryDy=0;endArrow=none;startFill=0;" edge="1" parent="1" source="32"><mxGeometry relative="1" as="geometry"><mxPoint x="3340.0000000000005" y="7845" as="targetPoint"/></mxGeometry></mxCell><mxCell id="32" value="&amp;nbsp;:Middleware" style="rounded=0;whiteSpace=wrap;html=1;" vertex="1" parent="1"><mxGeometry x="3275.0000000000005" y="8080" width="130.91" height="40" as="geometry"/></mxCell><mxCell id="33" value="" style="endArrow=classic;html=1;rounded=0;" edge="1" parent="1"><mxGeometry width="50" height="50" relative="1" as="geometry"><mxPoint x="3324.9100000000003" y="7870" as="sourcePoint"/><mxPoint x="3325.0000000000005" y="8070" as="targetPoint"/></mxGeometry></mxCell><mxCell id="34" value="" style="endArrow=classic;html=1;rounded=0;dashed=1;" edge="1" parent="1"><mxGeometry width="50" height="50" relative="1" as="geometry"><mxPoint x="3355.0000000000005" y="8070" as="sourcePoint"/><mxPoint x="3355.0000000000005" y="7870" as="targetPoint"/></mxGeometry></mxCell><mxCell id="35" value="2.&amp;nbsp;&lt;span style=&quot;color: rgba(0, 0, 0, 0); font-family: monospace; font-size: 0px; text-align: start;&quot;&gt;%3CmxGraphModel%3E%3Croot%3E%3CmxCell%20id%3D%220%22%2F%3E%3CmxCell%20id%3D%221%22%20parent%3D%220%22%2F%3E%3CmxCell%20id%3D%222%22%20style%3D%22edgeStyle%3DorthogonalEdgeStyle%3Brounded%3D0%3BorthogonalLoop%3D1%3BjettySize%3Dauto%3Bhtml%3D1%3BentryX%3D0%3BentryY%3D0.5%3BentryDx%3D0%3BentryDy%3D0%3BendArrow%3Dnone%3BstartFill%3D0%3B%22%20edge%3D%221%22%20parent%3D%221%22%3E%3CmxGeometry%20relative%3D%221%22%20as%3D%22geometry%22%3E%3CmxPoint%20x%3D%22-2250%22%20y%3D%222240%22%20as%3D%22sourcePoint%22%2F%3E%3CmxPoint%20x%3D%22-2000%22%20y%3D%222240%22%20as%3D%22targetPoint%22%2F%3E%3C%2FmxGeometry%3E%3C%2FmxCell%3E%3CmxCell%20id%3D%223%22%20value%3D%22User%22%20style%3D%22shape%3DumlActor%3BverticalLabelPosition%3Dbottom%3BverticalAlign%3Dtop%3Bhtml%3D1%3BoutlineConnect%3D0%3B%22%20vertex%3D%221%22%20parent%3D%221%22%3E%3CmxGeometry%20x%3D%22-2290%22%20y%3D%222200%22%20width%3D%2235%22%20height%3D%2270%22%20as%3D%22geometry%22%2F%3E%3C%2FmxCell%3E%3CmxCell%20id%3D%224%22%20value%3D%22%3AFrontend%22%20style%3D%22rounded%3D0%3BwhiteSpace%3Dwrap%3Bhtml%3D1%3B%22%20vertex%3D%221%22%20parent%3D%221%22%3E%3CmxGeometry%20x%3D%22-2000%22%20y%3D%222215%22%20width%3D%22130.91%22%20height%3D%2240%22%20as%3D%22geometry%22%2F%3E%3C%2FmxCell%3E%3CmxCell%20id%3D%225%22%20value%3D%22%22%20style%3D%22endArrow%3Dclassic%3Bhtml%3D1%3Brounded%3D0%3B%22%20edge%3D%221%22%20parent%3D%221%22%3E%3CmxGeometry%20width%3D%2250%22%20height%3D%2250%22%20relative%3D%221%22%20as%3D%22geometry%22%3E%3CmxPoint%20x%3D%22-2240%22%20y%3D%222225%22%20as%3D%22sourcePoint%22%2F%3E%3CmxPoint%20x%3D%22-2019.9999999999998%22%20y%3D%222225%22%20as%3D%22targetPoint%22%2F%3E%3C%2FmxGeometry%3E%3C%2FmxCell%3E%3CmxCell%20id%3D%226%22%20value%3D%22%22%20style%3D%22endArrow%3Dclassic%3Bhtml%3D1%3Brounded%3D0%3Bdashed%3D1%3B%22%20edge%3D%221%22%20parent%3D%221%22%3E%3CmxGeometry%20width%3D%2250%22%20height%3D%2250%22%20relative%3D%221%22%20as%3D%22geometry%22%3E%3CmxPoint%20x%3D%22-2029.9999999999998%22%20y%3D%222255%22%20as%3D%22sourcePoint%22%2F%3E%3CmxPoint%20x%3D%22-2240%22%20y%3D%222255%22%20as%3D%22targetPoint%22%2F%3E%3C%2FmxGeometry%3E%3C%2FmxCell%3E%3CmxCell%20id%3D%227%22%20value%3D%22%26amp%3Bnbsp%3B%3ARouter%22%20style%3D%22rounded%3D0%3BwhiteSpace%3Dwrap%3Bhtml%3D1%3B%22%20vertex%3D%221%22%20parent%3D%221%22%3E%3CmxGeometry%20x%3D%22-1660%22%20y%3D%222215%22%20width%3D%22130.91%22%20height%3D%2240%22%20as%3D%22geometry%22%2F%3E%3C%2FmxCell%3E%3CmxCell%20id%3D%228%22%20style%3D%22edgeStyle%3DorthogonalEdgeStyle%3Brounded%3D0%3BorthogonalLoop%3D1%3BjettySize%3Dauto%3Bhtml%3D1%3BentryX%3D0%3BentryY%3D0.5%3BentryDx%3D0%3BentryDy%3D0%3BendArrow%3Dnone%3BstartFill%3D0%3B%22%20edge%3D%221%22%20target%3D%227%22%20parent%3D%221%22%3E%3CmxGeometry%20relative%3D%221%22%20as%3D%22geometry%22%3E%3CmxPoint%20x%3D%22-1869.09%22%20y%3D%222235%22%20as%3D%22sourcePoint%22%2F%3E%3CmxPoint%20x%3D%22-1664.09%22%20y%3D%222235%22%20as%3D%22targetPoint%22%2F%3E%3C%2FmxGeometry%3E%3C%2FmxCell%3E%3CmxCell%20id%3D%229%22%20value%3D%22%22%20style%3D%22endArrow%3Dclassic%3Bhtml%3D1%3Brounded%3D0%3B%22%20edge%3D%221%22%20parent%3D%221%22%3E%3CmxGeometry%20width%3D%2250%22%20height%3D%2250%22%20relative%3D%221%22%20as%3D%22geometry%22%3E%3CmxPoint%20x%3D%22-1844.09%22%20y%3D%222220%22%20as%3D%22sourcePoint%22%2F%3E%3CmxPoint%20x%3D%22-1684.09%22%20y%3D%222220%22%20as%3D%22targetPoint%22%2F%3E%3C%2FmxGeometry%3E%3C%2FmxCell%3E%3CmxCell%20id%3D%2210%22%20value%3D%22%26amp%3Bnbsp%3B%22%20style%3D%22text%3BwhiteSpace%3Dwrap%3Bhtml%3D1%3B%22%20vertex%3D%221%22%20parent%3D%221%22%3E%3CmxGeometry%20x%3D%22-1760%22%20y%3D%222200%22%20width%3D%2240%22%20height%3D%2240%22%20as%3D%22geometry%22%2F%3E%3C%2FmxCell%3E%3CmxCell%20id%3D%2211%22%20value%3D%22%3AClassController%26amp%3Bnbsp%3B%22%20style%3D%22rounded%3D0%3BwhiteSpace%3Dwrap%3Bhtml%3D1%3B%22%20vertex%3D%221%22%20parent%3D%221%22%3E%3CmxGeometry%20x%3D%22-1169.09%22%20y%3D%222215%22%20width%3D%22130.91%22%20height%3D%2240%22%20as%3D%22geometry%22%2F%3E%3C%2FmxCell%3E%3CmxCell%20id%3D%2212%22%20style%3D%22edgeStyle%3DorthogonalEdgeStyle%3Brounded%3D0%3BorthogonalLoop%3D1%3BjettySize%3Dauto%3Bhtml%3D1%3BentryX%3D0%3BentryY%3D0.5%3BentryDx%3D0%3BentryDy%3D0%3BendArrow%3Dnone%3BstartFill%3D0%3B%22%20edge%3D%221%22%20target%3D%2211%22%20parent%3D%221%22%3E%3CmxGeometry%20relative%3D%221%22%20as%3D%22geometry%22%3E%3CmxPoint%20x%3D%22-1529.09%22%20y%3D%222235%22%20as%3D%22sourcePoint%22%2F%3E%3CmxPoint%20x%3D%22-1324.09%22%20y%3D%222235%22%20as%3D%22targetPoint%22%2F%3E%3C%2FmxGeometry%3E%3C%2FmxCell%3E%3CmxCell%20id%3D%2213%22%20value%3D%22%22%20style%3D%22endArrow%3Dclassic%3Bhtml%3D1%3Brounded%3D0%3B%22%20edge%3D%221%22%20parent%3D%221%22%3E%3CmxGeometry%20width%3D%2250%22%20height%3D%2250%22%20relative%3D%221%22%20as%3D%22geometry%22%3E%3CmxPoint%20x%3D%22-1504.09%22%20y%3D%222220%22%20as%3D%22sourcePoint%22%2F%3E%3CmxPoint%20x%3D%22-1190%22%20y%3D%222220%22%20as%3D%22targetPoint%22%2F%3E%3C%2FmxGeometry%3E%3C%2FmxCell%3E%3CmxCell%20id%3D%2214%22%20value%3D%22%22%20style%3D%22endArrow%3Dclassic%3Bhtml%3D1%3Brounded%3D0%3Bdashed%3D1%3B%22%20edge%3D%221%22%20parent%3D%221%22%3E%3CmxGeometry%20width%3D%2250%22%20height%3D%2250%22%20relative%3D%221%22%20as%3D%22geometry%22%3E%3CmxPoint%20x%3D%22-1190%22%20y%3D%222250%22%20as%3D%22sourcePoint%22%2F%3E%3CmxPoint%20x%3D%22-1510%22%20y%3D%222250%22%20as%3D%22targetPoint%22%2F%3E%3C%2FmxGeometry%3E%3C%2FmxCell%3E%3CmxCell%20id%3D%2215%22%20value%3D%22%3AClassService%26amp%3Bnbsp%3B%22%20style%3D%22rounded%3D0%3BwhiteSpace%3Dwrap%3Bhtml%3D1%3B%22%20vertex%3D%221%22%20parent%3D%221%22%3E%3CmxGeometry%20x%3D%22-709.09%22%20y%3D%222215%22%20width%3D%22130.91%22%20height%3D%2240%22%20as%3D%22geometry%22%2F%3E%3C%2FmxCell%3E%3CmxCell%20id%3D%2216%22%20style%3D%22edgeStyle%3DorthogonalEdgeStyle%3Brounded%3D0%3BorthogonalLoop%3D1%3BjettySize%3Dauto%3Bhtml%3D1%3BentryX%3D0%3BentryY%3D0.5%3BentryDx%3D0%3BentryDy%3D0%3BendArrow%3Dnone%3BstartFill%3D0%3B%22%20edge%3D%221%22%20target%3D%2215%22%20parent%3D%221%22%3E%3CmxGeometry%20relative%3D%221%22%20as%3D%22geometry%22%3E%3CmxPoint%20x%3D%22-1038.1799999999998%22%20y%3D%222235%22%20as%3D%22sourcePoint%22%2F%3E%3CmxPoint%20x%3D%22-833.18%22%20y%3D%222235%22%20as%3D%22targetPoint%22%2F%3E%3C%2FmxGeometry%3E%3C%2FmxCell%3E%3CmxCell%20id%3D%2217%22%20value%3D%22%22%20style%3D%22endArrow%3Dclassic%3Bhtml%3D1%3Brounded%3D0%3B%22%20edge%3D%221%22%20parent%3D%221%22%3E%3CmxGeometry%20width%3D%2250%22%20height%3D%2250%22%20relative%3D%221%22%20as%3D%22geometry%22%3E%3CmxPoint%20x%3D%22-1013.18%22%20y%3D%222220%22%20as%3D%22sourcePoint%22%2F%3E%3CmxPoint%20x%3D%22-719.09%22%20y%3D%222220%22%20as%3D%22targetPoint%22%2F%3E%3C%2FmxGeometry%3E%3C%2FmxCell%3E%3CmxCell%20id%3D%2218%22%20value%3D%22%22%20style%3D%22endArrow%3Dclassic%3Bhtml%3D1%3Brounded%3D0%3Bdashed%3D1%3B%22%20edge%3D%221%22%20parent%3D%221%22%3E%3CmxGeometry%20width%3D%2250%22%20height%3D%2250%22%20relative%3D%221%22%20as%3D%22geometry%22%3E%3CmxPoint%20x%3D%22-719.09%22%20y%3D%222250%22%20as%3D%22sourcePoint%22%2F%3E%3CmxPoint%20x%3D%22-1019.09%22%20y%3D%222250%22%20as%3D%22targetPoint%22%2F%3E%3C%2FmxGeometry%3E%3C%2FmxCell%3E%3CmxCell%20id%3D%2219%22%20style%3D%22edgeStyle%3DorthogonalEdgeStyle%3Brounded%3D0%3BorthogonalLoop%3D1%3BjettySize%3Dauto%3Bhtml%3D1%3BendArrow%3Dnone%3BstartFill%3D0%3B%22%20edge%3D%221%22%20source%3D%2220%22%20parent%3D%221%22%3E%3CmxGeometry%20relative%3D%221%22%20as%3D%22geometry%22%3E%3CmxPoint%20x%3D%22170.91%22%20y%3D%222235%22%20as%3D%22targetPoint%22%2F%3E%3C%2FmxGeometry%3E%3C%2FmxCell%3E%3CmxCell%20id%3D%2220%22%20value%3D%22%3AClassRepository%22%20style%3D%22rounded%3D0%3BwhiteSpace%3Dwrap%3Bhtml%3D1%3B%22%20vertex%3D%221%22%20parent%3D%221%22%3E%3CmxGeometry%20x%3D%22-369.0899999999999%22%20y%3D%222215%22%20width%3D%22130.91%22%20height%3D%2240%22%20as%3D%22geometry%22%2F%3E%3C%2FmxCell%3E%3CmxCell%20id%3D%2221%22%20style%3D%22edgeStyle%3DorthogonalEdgeStyle%3Brounded%3D0%3BorthogonalLoop%3D1%3BjettySize%3Dauto%3Bhtml%3D1%3BentryX%3D0%3BentryY%3D0.5%3BentryDx%3D0%3BentryDy%3D0%3BendArrow%3Dnone%3BstartFill%3D0%3B%22%20edge%3D%221%22%20target%3D%2220%22%20parent%3D%221%22%3E%3CmxGeometry%20relative%3D%221%22%20as%3D%22geometry%22%3E%3CmxPoint%20x%3D%22-578.1799999999998%22%20y%3D%222235%22%20as%3D%22sourcePoint%22%2F%3E%3CmxPoint%20x%3D%22-373.17999999999984%22%20y%3D%222235%22%20as%3D%22targetPoint%22%2F%3E%3C%2FmxGeometry%3E%3C%2FmxCell%3E%3CmxCell%20id%3D%2222%22%20value%3D%22%22%20style%3D%22endArrow%3Dclassic%3Bhtml%3D1%3Brounded%3D0%3B%22%20edge%3D%221%22%20parent%3D%221%22%3E%3CmxGeometry%20width%3D%2250%22%20height%3D%2250%22%20relative%3D%221%22%20as%3D%22geometry%22%3E%3CmxPoint%20x%3D%22-553.18%22%20y%3D%222220%22%20as%3D%22sourcePoint%22%2F%3E%3CmxPoint%20x%3D%22-393.1799999999997%22%20y%3D%222220%22%20as%3D%22targetPoint%22%2F%3E%3C%2FmxGeometry%3E%3C%2FmxCell%3E%3CmxCell%20id%3D%2223%22%20value%3D%22%22%20style%3D%22endArrow%3Dclassic%3Bhtml%3D1%3Brounded%3D0%3Bdashed%3D1%3B%22%20edge%3D%221%22%20parent%3D%221%22%3E%3CmxGeometry%20width%3D%2250%22%20height%3D%2250%22%20relative%3D%221%22%20as%3D%22geometry%22%3E%3CmxPoint%20x%3D%22-389.09000000000003%22%20y%3D%222250%22%20as%3D%22sourcePoint%22%2F%3E%3CmxPoint%20x%3D%22-549.09%22%20y%3D%222250%22%20as%3D%22targetPoint%22%2F%3E%3C%2FmxGeometry%3E%3C%2FmxCell%3E%3CmxCell%20id%3D%2224%22%20value%3D%22GET%20%2Fapi%2Fclasses%3Fadmin%3Dtrue%26lt%3Bdiv%26gt%3BPOST%20%2Fapi%2Fclasses%2Fedit%20(classID%2C%20updatedData)%26lt%3B%2Fdiv%26gt%3B%22%20style%3D%22text%3Bhtml%3D1%3Balign%3Dcenter%3BverticalAlign%3Dmiddle%3Bresizable%3D0%3Bpoints%3D%5B%5D%3Bautosize%3D1%3BstrokeColor%3Dnone%3BfillColor%3Dnone%3B%22%20vertex%3D%221%22%20parent%3D%221%22%3E%3CmxGeometry%20x%3D%22-1905%22%20y%3D%222175%22%20width%3D%22270%22%20height%3D%2240%22%20as%3D%22geometry%22%2F%3E%3C%2FmxCell%3E%3CmxCell%20id%3D%2225%22%20value%3D%22%26amp%3Bnbsp%3B%3ADatabase%22%20style%3D%22rounded%3D0%3BwhiteSpace%3Dwrap%3Bhtml%3D1%3B%22%20vertex%3D%221%22%20parent%3D%221%22%3E%3CmxGeometry%20x%3D%22130.00000000000014%22%20y%3D%222215%22%20width%3D%22130.91%22%20height%3D%2240%22%20as%3D%22geometry%22%2F%3E%3C%2FmxCell%3E%3CmxCell%20id%3D%2226%22%20value%3D%22Edit%20Class%22%20style%3D%22text%3Bhtml%3D1%3Balign%3Dcenter%3BverticalAlign%3Dmiddle%3BwhiteSpace%3Dwrap%3Brounded%3D0%3BfontSize%3D20%3B%22%20vertex%3D%221%22%20parent%3D%221%22%3E%3CmxGeometry%20x%3D%22-1291.59%22%20y%3D%222050%22%20width%3D%22345%22%20height%3D%2230%22%20as%3D%22geometry%22%2F%3E%3C%2FmxCell%3E%3CmxCell%20id%3D%2227%22%20value%3D%22selectClass(classID)%26lt%3Bbr%26gt%3BsubmitEditForm(updated%20Data%2C%20classID)%22%20style%3D%22text%3Bhtml%3D1%3Balign%3Dcenter%3BverticalAlign%3Dmiddle%3Bresizable%3D0%3Bpoints%3D%5B%5D%3Bautosize%3D1%3BstrokeColor%3Dnone%3BfillColor%3Dnone%3B%22%20vertex%3D%221%22%20parent%3D%221%22%3E%3CmxGeometry%20x%3D%22-2240%22%20y%3D%222160%22%20width%3D%22230%22%20height%3D%2240%22%20as%3D%22geometry%22%2F%3E%3C%2FmxCell%3E%3CmxCell%20id%3D%2228%22%20value%3D%22%22%20style%3D%22endArrow%3Dclassic%3Bhtml%3D1%3Brounded%3D0%3Bdashed%3D1%3B%22%20edge%3D%221%22%20parent%3D%221%22%3E%3CmxGeometry%20width%3D%2250%22%20height%3D%2250%22%20relative%3D%221%22%20as%3D%22geometry%22%3E%3CmxPoint%20x%3D%22-1684.09%22%20y%3D%222250%22%20as%3D%22sourcePoint%22%2F%3E%3CmxPoint%20x%3D%22-1844.09%22%20y%3D%222250%22%20as%3D%22targetPoint%22%2F%3E%3C%2FmxGeometry%3E%3C%2FmxCell%3E%3CmxCell%20id%3D%2229%22%20value%3D%22%22%20style%3D%22endArrow%3Dclassic%3Bhtml%3D1%3Brounded%3D0%3B%22%20edge%3D%221%22%20parent%3D%221%22%3E%3CmxGeometry%20width%3D%2250%22%20height%3D%2250%22%20relative%3D%221%22%20as%3D%22geometry%22%3E%3CmxPoint%20x%3D%22-219.08999999999995%22%20y%3D%222219.38%22%20as%3D%22sourcePoint%22%2F%3E%3CmxPoint%20x%3D%22150.91000000000003%22%20y%3D%222220%22%20as%3D%22targetPoint%22%2F%3E%3C%2FmxGeometry%3E%3C%2FmxCell%3E%3CmxCell%20id%3D%2230%22%20value%3D%22%22%20style%3D%22endArrow%3Dclassic%3Bhtml%3D1%3Brounded%3D0%3Bdashed%3D1%3B%22%20edge%3D%221%22%20parent%3D%221%22%3E%3CmxGeometry%20width%3D%2250%22%20height%3D%2250%22%20relative%3D%221%22%20as%3D%22geometry%22%3E%3CmxPoint%20x%3D%22140.91000000000003%22%20y%3D%222250%22%20as%3D%22sourcePoint%22%2F%3E%3CmxPoint%20x%3D%22-219.09%22%20y%3D%222250%22%20as%3D%22targetPoint%22%2F%3E%3C%2FmxGeometry%3E%3C%2FmxCell%3E%3CmxCell%20id%3D%2231%22%20value%3D%22%26amp%3Bnbsp%3B%22%20style%3D%22text%3Bhtml%3D1%3Balign%3Dcenter%3BverticalAlign%3Dmiddle%3Bresizable%3D0%3Bpoints%3D%5B%5D%3Bautosize%3D1%3BstrokeColor%3Dnone%3BfillColor%3Dnone%3B%22%20vertex%3D%221%22%20parent%3D%221%22%3E%3CmxGeometry%20x%3D%22-1430%22%20y%3D%222265%22%20width%3D%2230%22%20height%3D%2230%22%20as%3D%22geometry%22%2F%3E%3C%2FmxCell%3E%3CmxCell%20id%3D%2232%22%20value%3D%22successResponse(200%2C%20classList)%26lt%3Bdiv%26gt%3BerrorResponse(400%2C%20%26quot%3BData%20incomplete%2Fincorrect%26quot%3B)%26lt%3B%2Fdiv%26gt%3B%26lt%3Bdiv%26gt%3BerrorResponse(500%2C%20%26quot%3BEdit%20failed%26quot%3B)%26lt%3B%2Fdiv%26gt%3B%26lt%3Bdiv%26gt%3BsuccessResponse(200%2C%20%26quot%3BEdit%20class%20successful%26quot%3B%2C%20updatedClass)%26lt%3B%2Fdiv%26gt%3B%22%20style%3D%22text%3Bhtml%3D1%3Balign%3Dcenter%3BverticalAlign%3Dmiddle%3Bresizable%3D0%3Bpoints%3D%5B%5D%3Bautosize%3D1%3BstrokeColor%3Dnone%3BfillColor%3Dnone%3B%22%20vertex%3D%221%22%20parent%3D%221%22%3E%3CmxGeometry%20x%3D%22-1945%22%20y%3D%222250%22%20width%3D%22350%22%20height%3D%2270%22%20as%3D%22geometry%22%2F%3E%3C%2FmxCell%3E%3CmxCell%20id%3D%2233%22%20value%3D%22displayClassList(classList)%26lt%3Bdiv%26gt%3BdisplayMessage(%26quot%3BEdit%20class%20successful%26quot%3B)%26lt%3B%2Fdiv%26gt%3B%22%20style%3D%22text%3Bhtml%3D1%3Balign%3Dcenter%3BverticalAlign%3Dmiddle%3Bresizable%3D0%3Bpoints%3D%5B%5D%3Bautosize%3D1%3BstrokeColor%3Dnone%3BfillColor%3Dnone%3B%22%20vertex%3D%221%22%20parent%3D%221%22%3E%3CmxGeometry%20x%3D%22-2245%22%20y%3D%222265%22%20width%3D%22240%22%20height%3D%2240%22%20as%3D%22geometry%22%2F%3E%3C%2FmxCell%3E%3CmxCell%20id%3D%2234%22%20style%3D%22edgeStyle%3DorthogonalEdgeStyle%3Brounded%3D0%3BorthogonalLoop%3D1%3BjettySize%3Dauto%3Bhtml%3D1%3BentryX%3D0.5%3BentryY%3D1%3BentryDx%3D0%3BentryDy%3D0%3BendArrow%3Dnone%3BstartFill%3D0%3B%22%20edge%3D%221%22%20source%3D%2235%22%20parent%3D%221%22%3E%3CmxGeometry%20relative%3D%221%22%20as%3D%22geometry%22%3E%3CmxPoint%20x%3D%22-1595.91%22%20y%3D%222255%22%20as%3D%22targetPoint%22%2F%3E%3C%2FmxGeometry%3E%3C%2FmxCell%3E%3CmxCell%20id%3D%2235%22%20value%3D%22%26amp%3Bnbsp%3B%3AMiddleware%22%20style%3D%22rounded%3D0%3BwhiteSpace%3Dwrap%3Bhtml%3D1%3B%22%20vertex%3D%221%22%20parent%3D%221%22%3E%3CmxGeometry%20x%3D%22-1660.91%22%20y%3D%222490%22%20width%3D%22130.91%22%20height%3D%2240%22%20as%3D%22geometry%22%2F%3E%3C%2FmxCell%3E%3CmxCell%20id%3D%2236%22%20value%3D%22%22%20style%3D%22endArrow%3Dclassic%3Bhtml%3D1%3Brounded%3D0%3B%22%20edge%3D%221%22%20parent%3D%221%22%3E%3CmxGeometry%20width%3D%2250%22%20height%3D%2250%22%20relative%3D%221%22%20as%3D%22geometry%22%3E%3CmxPoint%20x%3D%22-1611%22%20y%3D%222280%22%20as%3D%22sourcePoint%22%2F%3E%3CmxPoint%20x%3D%22-1610.91%22%20y%3D%222480%22%20as%3D%22targetPoint%22%2F%3E%3C%2FmxGeometry%3E%3C%2FmxCell%3E%3CmxCell%20id%3D%2237%22%20value%3D%22%22%20style%3D%22endArrow%3Dclassic%3Bhtml%3D1%3Brounded%3D0%3Bdashed%3D1%3B%22%20edge%3D%221%22%20parent%3D%221%22%3E%3CmxGeometry%20width%3D%2250%22%20height%3D%2250%22%20relative%3D%221%22%20as%3D%22geometry%22%3E%3CmxPoint%20x%3D%22-1580.91%22%20y%3D%222480%22%20as%3D%22sourcePoint%22%2F%3E%3CmxPoint%20x%3D%22-1580.91%22%20y%3D%222280%22%20as%3D%22targetPoint%22%2F%3E%3C%2FmxGeometry%3E%3C%2FmxCell%3E%3CmxCell%20id%3D%2238%22%20value%3D%22validateSession()%26lt%3Bdiv%26gt%3BvalidateRequest()%26lt%3B%2Fdiv%26gt%3B%22%20style%3D%22text%3Bhtml%3D1%3Balign%3Dcenter%3BverticalAlign%3Dmiddle%3Bresizable%3D0%3Bpoints%3D%5B%5D%3Bautosize%3D1%3BstrokeColor%3Dnone%3BfillColor%3Dnone%3B%22%20vertex%3D%221%22%20parent%3D%221%22%3E%3CmxGeometry%20x%3D%22-1735%22%20y%3D%222390%22%20width%3D%22120%22%20height%3D%2240%22%20as%3D%22geometry%22%2F%3E%3C%2FmxCell%3E%3CmxCell%20id%3D%2239%22%20value%3D%22%22%20style%3D%22endArrow%3Dclassic%3Bhtml%3D1%3Brounded%3D0%3BexitX%3D0.25%3BexitY%3D0%3BexitDx%3D0%3BexitDy%3D0%3BentryX%3D0.75%3BentryY%3D0%3BentryDx%3D0%3BentryDy%3D0%3B%22%20edge%3D%221%22%20source%3D%2211%22%20target%3D%2211%22%20parent%3D%221%22%3E%3CmxGeometry%20width%3D%2250%22%20height%3D%2250%22%20relative%3D%221%22%20as%3D%22geometry%22%3E%3CmxPoint%20x%3D%22-1169.09%22%20y%3D%222190%22%20as%3D%22sourcePoint%22%2F%3E%3CmxPoint%20x%3D%22-1039.09%22%20y%3D%222170%22%20as%3D%22targetPoint%22%2F%3E%3CArray%20as%3D%22points%22%3E%3CmxPoint%20x%3D%22-1135.35%22%20y%3D%222180%22%2F%3E%3CmxPoint%20x%3D%22-1135.0900000000001%22%20y%3D%222170%22%2F%3E%3CmxPoint%20x%3D%22-1069.09%22%20y%3D%222170%22%2F%3E%3C%2FArray%3E%3C%2FmxGeometry%3E%3C%2FmxCell%3E%3CmxCell%20id%3D%2240%22%20value%3D%22validateUpdatedData%26amp%3Bnbsp%3B%22%20style%3D%22text%3Bhtml%3D1%3Balign%3Dcenter%3BverticalAlign%3Dmiddle%3Bresizable%3D0%3Bpoints%3D%5B%5D%3Bautosize%3D1%3BstrokeColor%3Dnone%3BfillColor%3Dnone%3B%22%20vertex%3D%221%22%20parent%3D%221%22%3E%3CmxGeometry%20x%3D%22-1173.63%22%20y%3D%222125%22%20width%3D%22140%22%20height%3D%2230%22%20as%3D%22geometry%22%2F%3E%3C%2FmxCell%3E%3CmxCell%20id%3D%2241%22%20value%3D%22successResponse(200%2C%20classList)%26lt%3Bdiv%26gt%3B%5BinvalidData%20(7.1a)%5D%20returnError(%26quot%3BData%20incomplete%2Fincorrect%26quot%3B)%26lt%3B%2Fdiv%26gt%3B%26lt%3Bdiv%26gt%3BerrorResponse(500%2C%20%26quot%3BEdit%20failed%26quot%3B)%26lt%3B%2Fdiv%26gt%3B%26lt%3Bdiv%26gt%3BsuccessResponse(200%2C%20%26quot%3BEdit%20class%20successful%26quot%3B%2C%20updatedClass)%26lt%3B%2Fdiv%26gt%3B%22%20style%3D%22text%3Bhtml%3D1%3Balign%3Dcenter%3BverticalAlign%3Dmiddle%3Bresizable%3D0%3Bpoints%3D%5B%5D%3Bautosize%3D1%3BstrokeColor%3Dnone%3BfillColor%3Dnone%3B%22%20vertex%3D%221%22%20parent%3D%221%22%3E%3CmxGeometry%20x%3D%22-1530%22%20y%3D%222245%22%20width%3D%22350%22%20height%3D%2270%22%20as%3D%22geometry%22%2F%3E%3C%2FmxCell%3E%3CmxCell%20id%3D%2242%22%20style%3D%22edgeStyle%3DorthogonalEdgeStyle%3Brounded%3D0%3BorthogonalLoop%3D1%3BjettySize%3Dauto%3Bhtml%3D1%3BendArrow%3Dnone%3BstartFill%3D0%3BexitX%3D1%3BexitY%3D0.5%3BexitDx%3D0%3BexitDy%3D0%3B%22%20edge%3D%221%22%20source%3D%2235%22%20parent%3D%221%22%3E%3CmxGeometry%20relative%3D%221%22%20as%3D%22geometry%22%3E%3CmxPoint%20x%3D%22-1100%22%20y%3D%222256%22%20as%3D%22targetPoint%22%2F%3E%3CmxPoint%20x%3D%22-1424.79%22%20y%3D%222545%22%20as%3D%22sourcePoint%22%2F%3E%3CArray%20as%3D%22points%22%3E%3CmxPoint%20x%3D%22-1490%22%20y%3D%222510%22%2F%3E%3CmxPoint%20x%3D%22-1490%22%20y%3D%222420%22%2F%3E%3CmxPoint%20x%3D%22-1100%22%20y%3D%222420%22%2F%3E%3CmxPoint%20x%3D%22-1100%22%20y%3D%222256%22%2F%3E%3C%2FArray%3E%3C%2FmxGeometry%3E%3C%2FmxCell%3E%3CmxCell%20id%3D%2243%22%20value%3D%22getAdminClasses(userID)%26lt%3Bdiv%26gt%3BeditClass(classID%2C%20updated%20Data)%26lt%3B%2Fdiv%26gt%3B%22%20style%3D%22text%3Bhtml%3D1%3Balign%3Dcenter%3BverticalAlign%3Dmiddle%3Bresizable%3D0%3Bpoints%3D%5B%5D%3Bautosize%3D1%3BstrokeColor%3Dnone%3BfillColor%3Dnone%3B%22%20vertex%3D%221%22%20parent%3D%221%22%3E%3CmxGeometry%20x%3D%22-1395%22%20y%3D%222360%22%20width%3D%22200%22%20height%3D%2240%22%20as%3D%22geometry%22%2F%3E%3C%2FmxCell%3E%3CmxCell%20id%3D%2244%22%20value%3D%22%26amp%3Bnbsp%3B%22%20style%3D%22text%3Bhtml%3D1%3Balign%3Dcenter%3BverticalAlign%3Dmiddle%3Bresizable%3D0%3Bpoints%3D%5B%5D%3Bautosize%3D1%3BstrokeColor%3Dnone%3BfillColor%3Dnone%3B%22%20vertex%3D%221%22%20parent%3D%221%22%3E%3CmxGeometry%20x%3D%22-883.1800000000001%22%20y%3D%222180%22%20width%3D%2230%22%20height%3D%2230%22%20as%3D%22geometry%22%2F%3E%3C%2FmxCell%3E%3CmxCell%20id%3D%2245%22%20value%3D%22selectClassesByAdmin(userID)%26lt%3Bdiv%26gt%3BupdateClass(classID%2C%20updatedData)%26lt%3B%2Fdiv%26gt%3B%22%20style%3D%22text%3Bhtml%3D1%3Balign%3Dcenter%3BverticalAlign%3Dmiddle%3Bresizable%3D0%3Bpoints%3D%5B%5D%3Bautosize%3D1%3BstrokeColor%3Dnone%3BfillColor%3Dnone%3B%22%20vertex%3D%221%22%20parent%3D%221%22%3E%3CmxGeometry%20x%3D%22-573.1800000000001%22%20y%3D%222180%22%20width%3D%22210%22%20height%3D%2240%22%20as%3D%22geometry%22%2F%3E%3C%2FmxCell%3E%3CmxCell%20id%3D%2246%22%20value%3D%22SELECT%20id%2C%20name%2C%20description%2C%20privacy%20FROM%20classes%20WHERE%20owner_id%3D%3F%26lt%3Bdiv%26gt%3BUPDATE%20classes%20SET%20name%3D%3F%2C%20description%3D%3F%2C%20privacy%3D%3F%20WHERE%20id%3D%3F%26lt%3B%2Fdiv%26gt%3B%22%20style%3D%22text%3Bhtml%3D1%3Balign%3Dcenter%3BverticalAlign%3Dmiddle%3Bresizable%3D0%3Bpoints%3D%5B%5D%3Bautosize%3D1%3BstrokeColor%3Dnone%3BfillColor%3Dnone%3B%22%20vertex%3D%221%22%20parent%3D%221%22%3E%3CmxGeometry%20x%3D%22-224.09%22%20y%3D%222180%22%20width%3D%22420%22%20height%3D%2240%22%20as%3D%22geometry%22%2F%3E%3C%2FmxCell%3E%3CmxCell%20id%3D%2247%22%20value%3D%22classList%26lt%3Bdiv%26gt%3BaffectedRows%26lt%3B%2Fdiv%26gt%3B%22%20style%3D%22text%3Bhtml%3D1%3Balign%3Dcenter%3BverticalAlign%3Dmiddle%3Bresizable%3D0%3Bpoints%3D%5B%5D%3Bautosize%3D1%3BstrokeColor%3Dnone%3BfillColor%3Dnone%3B%22%20vertex%3D%221%22%20parent%3D%221%22%3E%3CmxGeometry%20x%3D%22-74.09%22%20y%3D%222255%22%20width%3D%22100%22%20height%3D%2240%22%20as%3D%22geometry%22%2F%3E%3C%2FmxCell%3E%3CmxCell%20id%3D%2248%22%20value%3D%22classList%26lt%3Bbr%26gt%3B%5BupdateFailure%20(5.1%20a)%5D%20returnError(%26quot%3BEdit%20failed%26quot%3B)%26lt%3Bdiv%26gt%3B%5BupdateSuccess%20(5.1)%5D%20returnClassRecord(updateClass)%26lt%3B%2Fdiv%26gt%3B%22%20style%3D%22text%3Bhtml%3D1%3Balign%3Dcenter%3BverticalAlign%3Dmiddle%3Bresizable%3D0%3Bpoints%3D%5B%5D%3Bautosize%3D1%3BstrokeColor%3Dnone%3BfillColor%3Dnone%3B%22%20vertex%3D%221%22%20parent%3D%221%22%3E%3CmxGeometry%20x%3D%22-629.09%22%20y%3D%222250%22%20width%3D%22320%22%20height%3D%2260%22%20as%3D%22geometry%22%2F%3E%3C%2FmxCell%3E%3CmxCell%20id%3D%2249%22%20value%3D%22classList%26amp%3Bnbsp%3B%26lt%3Bdiv%26gt%3BreturnError(%26quot%3BEdit%20failed%26quot%3B)%26lt%3B%2Fdiv%26gt%3B%26lt%3Bdiv%26gt%3B%26amp%3Bnbsp%3BreturnClassRecord(updateClass)%26lt%3B%2Fdiv%26gt%3B%22%20style%3D%22text%3Bhtml%3D1%3Balign%3Dcenter%3BverticalAlign%3Dmiddle%3Bresizable%3D0%3Bpoints%3D%5B%5D%3Bautosize%3D1%3BstrokeColor%3Dnone%3BfillColor%3Dnone%3B%22%20vertex%3D%221%22%20parent%3D%221%22%3E%3CmxGeometry%20x%3D%22-968.1800000000001%22%20y%3D%222250%22%20width%3D%22200%22%20height%3D%2260%22%20as%3D%22geometry%22%2F%3E%3C%2FmxCell%3E%3CmxCell%20id%3D%2250%22%20value%3D%22getAdminClasses(userID)%26lt%3Bdiv%26gt%3B%5BvalidData(7.1)%5D%20editClass(classID%2C%20updatedData)%26lt%3B%2Fdiv%26gt%3B%22%20style%3D%22text%3Bhtml%3D1%3Balign%3Dcenter%3BverticalAlign%3Dmiddle%3Bresizable%3D0%3Bpoints%3D%5B%5D%3Bautosize%3D1%3BstrokeColor%3Dnone%3BfillColor%3Dnone%3B%22%20vertex%3D%221%22%20parent%3D%221%22%3E%3CmxGeometry%20x%3D%22-1008.1800000000001%22%20y%3D%222175%22%20width%3D%22280%22%20height%3D%2240%22%20as%3D%22geometry%22%2F%3E%3C%2FmxCell%3E%3CmxCell%20id%3D%2251%22%20value%3D%22%22%20style%3D%22endArrow%3Dclassic%3Bhtml%3D1%3Brounded%3D0%3B%22%20edge%3D%221%22%20parent%3D%221%22%3E%3CmxGeometry%20width%3D%2250%22%20height%3D%2250%22%20relative%3D%221%22%20as%3D%22geometry%22%3E%3CmxPoint%20x%3D%22-1519.09%22%20y%3D%222496%22%20as%3D%22sourcePoint%22%2F%3E%3CmxPoint%20x%3D%22-1120%22%20y%3D%222265%22%20as%3D%22targetPoint%22%2F%3E%3CArray%20as%3D%22points%22%3E%3CmxPoint%20x%3D%22-1499.09%22%20y%3D%222496%22%2F%3E%3CmxPoint%20x%3D%22-1499.09%22%20y%3D%222406%22%2F%3E%3CmxPoint%20x%3D%22-1120%22%20y%3D%222410%22%2F%3E%3CmxPoint%20x%3D%22-1120%22%20y%3D%222330%22%2F%3E%3C%2FArray%3E%3C%2FmxGeometry%3E%3C%2FmxCell%3E%3CmxCell%20id%3D%2252%22%20value%3D%22%22%20style%3D%22endArrow%3Dclassic%3Bhtml%3D1%3Brounded%3D0%3BexitX%3D0.25%3BexitY%3D0%3BexitDx%3D0%3BexitDy%3D0%3BentryX%3D0.75%3BentryY%3D0%3BentryDx%3D0%3BentryDy%3D0%3B%22%20edge%3D%221%22%20parent%3D%221%22%3E%3CmxGeometry%20width%3D%2250%22%20height%3D%2250%22%20relative%3D%221%22%20as%3D%22geometry%22%3E%3CmxPoint%20x%3D%22-677.0899999999999%22%20y%3D%222215%22%20as%3D%22sourcePoint%22%2F%3E%3CmxPoint%20x%3D%22-612.0899999999999%22%20y%3D%222215%22%20as%3D%22targetPoint%22%2F%3E%3CArray%20as%3D%22points%22%3E%3CmxPoint%20x%3D%22-676.44%22%20y%3D%222180%22%2F%3E%3CmxPoint%20x%3D%22-676.1800000000001%22%20y%3D%222170%22%2F%3E%3CmxPoint%20x%3D%22-610.1800000000001%22%20y%3D%222170%22%2F%3E%3C%2FArray%3E%3C%2FmxGeometry%3E%3C%2FmxCell%3E%3CmxCell%20id%3D%2253%22%20value%3D%2222.%20verifyCurrentPassword(userId%2C%20currentPassword)%22%20style%3D%22text%3Bhtml%3D1%3Balign%3Dcenter%3BverticalAlign%3Dmiddle%3Bresizable%3D0%3Bpoints%3D%5B%5D%3Bautosize%3D1%3BstrokeColor%3Dnone%3BfillColor%3Dnone%3B%22%20vertex%3D%221%22%20parent%3D%221%22%3E%3CmxGeometry%20x%3D%22-788.1800000000001%22%20y%3D%222130%22%20width%3D%22300%22%20height%3D%2230%22%20as%3D%22geometry%22%2F%3E%3C%2FmxCell%3E%3CmxCell%20id%3D%2254%22%20value%3D%22%22%20style%3D%22endArrow%3Dclassic%3Bhtml%3D1%3Brounded%3D0%3BexitX%3D0.25%3BexitY%3D0%3BexitDx%3D0%3BexitDy%3D0%3BentryX%3D0.75%3BentryY%3D0%3BentryDx%3D0%3BentryDy%3D0%3B%22%20edge%3D%221%22%20parent%3D%221%22%3E%3CmxGeometry%20width%3D%2250%22%20height%3D%2250%22%20relative%3D%221%22%20as%3D%22geometry%22%3E%3CmxPoint%20x%3D%22-1966.9099999999999%22%20y%3D%222215%22%20as%3D%22sourcePoint%22%2F%3E%3CmxPoint%20x%3D%22-1901.9099999999999%22%20y%3D%222215%22%20as%3D%22targetPoint%22%2F%3E%3CArray%20as%3D%22points%22%3E%3CmxPoint%20x%3D%22-1966.2599999999998%22%20y%3D%222180%22%2F%3E%3CmxPoint%20x%3D%22-1966%22%20y%3D%222170%22%2F%3E%3CmxPoint%20x%3D%22-1900%22%20y%3D%222170%22%2F%3E%3C%2FArray%3E%3C%2FmxGeometry%3E%3C%2FmxCell%3E%3CmxCell%20id%3D%2255%22%20value%3D%22displayEditForm(classDetail)%22%20style%3D%22text%3Bhtml%3D1%3Balign%3Dcenter%3BverticalAlign%3Dmiddle%3Bresizable%3D0%3Bpoints%3D%5B%5D%3Bautosize%3D1%3BstrokeColor%3Dnone%3BfillColor%3Dnone%3B%22%20vertex%3D%221%22%20parent%3D%221%22%3E%3CmxGeometry%20x%3D%22-2024.54%22%20y%3D%222125%22%20width%3D%22180%22%20height%3D%2230%22%20as%3D%22geometry%22%2F%3E%3C%2FmxCell%3E%3C%2Froot%3E%3C%2FmxGraphModel%3E&lt;/span&gt;validateSession()&lt;div&gt;&lt;div&gt;20. validateRequest()&lt;/div&gt;&lt;div&gt;38. validateRequest()&lt;/div&gt;&lt;/div&gt;&lt;div&gt;54. validateRequest()&lt;/div&gt;" style="text;html=1;align=center;verticalAlign=middle;resizable=0;points=[];autosize=1;strokeColor=none;fillColor=none;" vertex="1" parent="1"><mxGeometry x="3190.82" y="7990" width="140" height="70" as="geometry"/></mxCell><mxCell id="36" value="" style="endArrow=classic;html=1;rounded=0;exitX=0.25;exitY=0;exitDx=0;exitDy=0;entryX=0.75;entryY=0;entryDx=0;entryDy=0;" edge="1" parent="1" source="10" target="10"><mxGeometry width="50" height="50" relative="1" as="geometry"><mxPoint x="3766.82" y="7780" as="sourcePoint"/><mxPoint x="3896.82" y="7760" as="targetPoint"/><Array as="points"><mxPoint x="3800.56" y="7770"/><mxPoint x="3800.82" y="7760"/><mxPoint x="3866.82" y="7760"/></Array></mxGeometry></mxCell><mxCell id="37" value="40. validateUpdatedData(updatedData)" style="text;html=1;align=center;verticalAlign=middle;resizable=0;points=[];autosize=1;strokeColor=none;fillColor=none;" vertex="1" parent="1"><mxGeometry x="3717.28" y="7715" width="230" height="30" as="geometry"/></mxCell><mxCell id="38" value="&lt;div&gt;&lt;span style=&quot;background-color: transparent; color: light-dark(rgb(0, 0, 0), rgb(255, 255, 255));&quot;&gt;10. errorResponse(404, &quot;ไม่พบข้อมูล class&quot;)&lt;/span&gt;&lt;/div&gt;&lt;div&gt;&lt;div&gt;&lt;span style=&quot;background-color: transparent; color: light-dark(rgb(0, 0, 0), rgb(255, 255, 255));&quot;&gt;15. successResponse(200, classList)&lt;/span&gt;&lt;/div&gt;&lt;div&gt;&lt;/div&gt;&lt;/div&gt;" style="text;html=1;align=center;verticalAlign=middle;resizable=0;points=[];autosize=1;strokeColor=none;fillColor=none;" vertex="1" parent="1"><mxGeometry x="3460.9100000000003" y="7860" width="260" height="40" as="geometry"/></mxCell><mxCell id="39" style="edgeStyle=orthogonalEdgeStyle;rounded=0;orthogonalLoop=1;jettySize=auto;html=1;endArrow=none;startFill=0;exitX=1;exitY=0.5;exitDx=0;exitDy=0;" edge="1" parent="1" source="32"><mxGeometry relative="1" as="geometry"><mxPoint x="3835.9100000000003" y="7846" as="targetPoint"/><mxPoint x="3511.1200000000003" y="8135" as="sourcePoint"/><Array as="points"><mxPoint x="3445.9100000000003" y="8100"/><mxPoint x="3445.9100000000003" y="8010"/><mxPoint x="3835.9100000000003" y="8010"/><mxPoint x="3835.9100000000003" y="7846"/></Array></mxGeometry></mxCell><mxCell id="40" value="3. getJoinedClasses(userID)" style="text;html=1;align=center;verticalAlign=middle;resizable=0;points=[];autosize=1;strokeColor=none;fillColor=none;" vertex="1" parent="1"><mxGeometry x="3541.9100000000003" y="7955" width="170" height="30" as="geometry"/></mxCell><mxCell id="41" value="&amp;nbsp;" style="text;html=1;align=center;verticalAlign=middle;resizable=0;points=[];autosize=1;strokeColor=none;fillColor=none;" vertex="1" parent="1"><mxGeometry x="4052.73" y="7770" width="30" height="30" as="geometry"/></mxCell><mxCell id="42" value="&amp;nbsp;5.&amp;nbsp; selectJoinedClasses(userID)" style="text;html=1;align=center;verticalAlign=middle;resizable=0;points=[];autosize=1;strokeColor=none;fillColor=none;" vertex="1" parent="1"><mxGeometry x="4362.73" y="7750" width="200" height="30" as="geometry"/></mxCell><mxCell id="43" value="6. SELECT id, name, description FROM classes WHERE user_id=?" style="text;html=1;align=center;verticalAlign=middle;resizable=0;points=[];autosize=1;strokeColor=none;fillColor=none;" vertex="1" parent="1"><mxGeometry x="4712.7300000000005" y="7770" width="380" height="30" as="geometry"/></mxCell><mxCell id="44" value="7. classList" style="text;html=1;align=center;verticalAlign=middle;resizable=0;points=[];autosize=1;strokeColor=none;fillColor=none;" vertex="1" parent="1"><mxGeometry x="4862.820000000001" y="7860" width="80" height="30" as="geometry"/></mxCell><mxCell id="45" value="&lt;div&gt;&lt;div&gt;8. [ไม่พบข้อมูล class] emptyList&lt;/div&gt;&lt;/div&gt;&lt;div&gt;13. [พบข้อมูล class] classList&lt;/div&gt;" style="text;html=1;align=center;verticalAlign=middle;resizable=0;points=[];autosize=1;strokeColor=none;fillColor=none;" vertex="1" parent="1"><mxGeometry x="4367.73" y="7860" width="190" height="40" as="geometry"/></mxCell><mxCell id="46" value="&lt;div&gt;&lt;span style=&quot;background-color: transparent; color: light-dark(rgb(0, 0, 0), rgb(255, 255, 255));&quot;&gt;9. returnError(&quot;ไม่พบข้อมูล class&quot;)&lt;/span&gt;&lt;/div&gt;&lt;div&gt;&lt;span style=&quot;background-color: transparent; color: light-dark(rgb(0, 0, 0), rgb(255, 255, 255));&quot;&gt;14.&amp;nbsp;&amp;nbsp;&lt;/span&gt;&lt;span style=&quot;background-color: transparent; color: light-dark(rgb(0, 0, 0), rgb(255, 255, 255));&quot;&gt;classList&lt;/span&gt;&lt;/div&gt;" style="text;html=1;align=center;verticalAlign=middle;resizable=0;points=[];autosize=1;strokeColor=none;fillColor=none;" vertex="1" parent="1"><mxGeometry x="3960.9100000000003" y="7860" width="200" height="40" as="geometry"/></mxCell><mxCell id="47" value="4. getJoinedClasses(userID)" style="text;html=1;align=center;verticalAlign=middle;resizable=0;points=[];autosize=1;strokeColor=none;fillColor=none;" vertex="1" parent="1"><mxGeometry x="3989.32" y="7755" width="170" height="30" as="geometry"/></mxCell><mxCell id="48" value="" style="endArrow=classic;html=1;rounded=0;" edge="1" parent="1"><mxGeometry width="50" height="50" relative="1" as="geometry"><mxPoint x="3416.82" y="8086" as="sourcePoint"/><mxPoint x="3815.9100000000003" y="7855" as="targetPoint"/><Array as="points"><mxPoint x="3436.82" y="8086"/><mxPoint x="3436.82" y="7996"/><mxPoint x="3815.9100000000003" y="7996"/><mxPoint x="3815.9100000000003" y="7920"/></Array></mxGeometry></mxCell><mxCell id="49" value=":CourseController" style="rounded=0;whiteSpace=wrap;html=1;" vertex="1" parent="1"><mxGeometry x="5495.910000000001" y="7805" width="130.91" height="40" as="geometry"/></mxCell><mxCell id="50" value=":CourseService" style="rounded=0;whiteSpace=wrap;html=1;" vertex="1" parent="1"><mxGeometry x="5895.910000000001" y="7805" width="130.91" height="40" as="geometry"/></mxCell><mxCell id="51" value=":CourseRepository" style="rounded=0;whiteSpace=wrap;html=1;" vertex="1" parent="1"><mxGeometry x="6295.910000000001" y="7805" width="130.91" height="40" as="geometry"/></mxCell><mxCell id="52" style="edgeStyle=orthogonalEdgeStyle;rounded=0;orthogonalLoop=1;jettySize=auto;html=1;endArrow=none;startFill=0;" edge="1" parent="1"><mxGeometry relative="1" as="geometry"><mxPoint x="5895.910000000001" y="7824.54" as="targetPoint"/><mxPoint x="5626.820000000001" y="7824.95" as="sourcePoint"/></mxGeometry></mxCell><mxCell id="53" style="edgeStyle=orthogonalEdgeStyle;rounded=0;orthogonalLoop=1;jettySize=auto;html=1;endArrow=none;startFill=0;" edge="1" parent="1"><mxGeometry relative="1" as="geometry"><mxPoint x="6295.910000000001" y="7824.549999999999" as="targetPoint"/><mxPoint x="6026.820000000001" y="7824.959999999999" as="sourcePoint"/></mxGeometry></mxCell><mxCell id="54" value="&lt;div style=&quot;forced-color-adjust: none; box-shadow: none !important;&quot;&gt;21. getCourses(classID)&lt;/div&gt;&lt;div style=&quot;forced-color-adjust: none; box-shadow: none !important;&quot;&gt;&lt;br&gt;&lt;/div&gt;" style="text;whiteSpace=wrap;html=1;" vertex="1" parent="1"><mxGeometry x="4474.639999999999" y="8050" width="139.09" height="30" as="geometry"/></mxCell><mxCell id="55" style="edgeStyle=orthogonalEdgeStyle;rounded=0;orthogonalLoop=1;jettySize=auto;html=1;endArrow=none;startFill=0;entryX=0.5;entryY=1;entryDx=0;entryDy=0;" edge="1" parent="1" target="49"><mxGeometry relative="1" as="geometry"><mxPoint x="3405.9100000000003" y="8100" as="sourcePoint"/><mxPoint x="5205.910000000001" y="8040" as="targetPoint"/><Array as="points"><mxPoint x="5561.910000000001" y="8099"/></Array></mxGeometry></mxCell><mxCell id="56" value="" style="endArrow=classic;html=1;rounded=0;" edge="1" parent="1"><mxGeometry width="50" height="50" relative="1" as="geometry"><mxPoint x="3415.9100000000003" y="8090" as="sourcePoint"/><mxPoint x="5545.910000000001" y="7860" as="targetPoint"/><Array as="points"><mxPoint x="3635.9100000000003" y="8090"/><mxPoint x="4015.9100000000003" y="8090"/><mxPoint x="5535.910000000001" y="8090"/><mxPoint x="5545.910000000001" y="8090"/></Array></mxGeometry></mxCell><mxCell id="57" value="22. getCourses(classID)" style="text;html=1;align=center;verticalAlign=middle;resizable=0;points=[];autosize=1;strokeColor=none;fillColor=none;" vertex="1" parent="1"><mxGeometry x="5675.820000000001" y="7775" width="150" height="30" as="geometry"/></mxCell><mxCell id="58" value="" style="endArrow=classic;html=1;rounded=0;" edge="1" parent="1"><mxGeometry width="50" height="50" relative="1" as="geometry"><mxPoint x="5635.910000000001" y="7815" as="sourcePoint"/><mxPoint x="5875.910000000001" y="7816" as="targetPoint"/></mxGeometry></mxCell><mxCell id="59" value="23. selectCoursesByClass(classID)" style="text;html=1;align=center;verticalAlign=middle;resizable=0;points=[];autosize=1;strokeColor=none;fillColor=none;" vertex="1" parent="1"><mxGeometry x="6045.910000000001" y="7775" width="210" height="30" as="geometry"/></mxCell><mxCell id="60" value="" style="endArrow=classic;html=1;rounded=0;" edge="1" parent="1"><mxGeometry width="50" height="50" relative="1" as="geometry"><mxPoint x="6035.910000000001" y="7814" as="sourcePoint"/><mxPoint x="6275.910000000001" y="7815" as="targetPoint"/></mxGeometry></mxCell><mxCell id="61" value="" style="endArrow=classic;html=1;rounded=0;" edge="1" parent="1"><mxGeometry width="50" height="50" relative="1" as="geometry"><mxPoint x="4726.820000000001" y="7819.38" as="sourcePoint"/><mxPoint x="5096.820000000001" y="7820" as="targetPoint"/></mxGeometry></mxCell><mxCell id="62" style="edgeStyle=orthogonalEdgeStyle;rounded=0;orthogonalLoop=1;jettySize=auto;html=1;endArrow=none;startFill=0;exitX=0.5;exitY=0;exitDx=0;exitDy=0;entryX=0.5;entryY=0;entryDx=0;entryDy=0;" edge="1" parent="1" source="23" target="51"><mxGeometry relative="1" as="geometry"><mxPoint x="6185.910000000001" y="7760" as="targetPoint"/><mxPoint x="5205.910000000001" y="7715.41" as="sourcePoint"/><Array as="points"><mxPoint x="5161.910000000001" y="7690"/><mxPoint x="6361.910000000001" y="7690"/></Array></mxGeometry></mxCell><mxCell id="63" value="" style="endArrow=classic;html=1;rounded=0;" edge="1" parent="1"><mxGeometry width="50" height="50" relative="1" as="geometry"><mxPoint x="6375.910000000001" y="7800" as="sourcePoint"/><mxPoint x="5145.910000000001" y="7800" as="targetPoint"/><Array as="points"><mxPoint x="6375.910000000001" y="7670"/><mxPoint x="5145.820000000001" y="7670"/></Array></mxGeometry></mxCell><mxCell id="64" value="24. SELECT id, title, description FROM courses WHERE class_id=?" style="text;html=1;align=center;verticalAlign=middle;resizable=0;points=[];autosize=1;strokeColor=none;fillColor=none;" vertex="1" parent="1"><mxGeometry x="5728.180000000001" y="7640" width="390" height="30" as="geometry"/></mxCell><mxCell id="65" value="" style="endArrow=classic;html=1;rounded=0;dashed=1;" edge="1" parent="1"><mxGeometry width="50" height="50" relative="1" as="geometry"><mxPoint x="5175.910000000001" y="7790" as="sourcePoint"/><mxPoint x="6345.910000000001" y="7790" as="targetPoint"/><Array as="points"><mxPoint x="5175.910000000001" y="7710"/><mxPoint x="6345.910000000001" y="7710"/></Array></mxGeometry></mxCell><mxCell id="66" value="25. courseList" style="text;html=1;align=center;verticalAlign=middle;resizable=0;points=[];autosize=1;strokeColor=none;fillColor=none;" vertex="1" parent="1"><mxGeometry x="5307.64" y="7720" width="100" height="30" as="geometry"/></mxCell><mxCell id="67" style="edgeStyle=orthogonalEdgeStyle;rounded=0;orthogonalLoop=1;jettySize=auto;html=1;endArrow=none;startFill=0;exitX=0.5;exitY=0;exitDx=0;exitDy=0;entryX=0.5;entryY=0;entryDx=0;entryDy=0;" edge="1" parent="1" source="7" target="49"><mxGeometry relative="1" as="geometry"><mxPoint x="6365.910000000001" y="7795" as="targetPoint"/><mxPoint x="5165.910000000001" y="7800" as="sourcePoint"/><Array as="points"><mxPoint x="3340.9100000000003" y="7630"/><mxPoint x="5561.910000000001" y="7630"/></Array></mxGeometry></mxCell><mxCell id="68" value="" style="endArrow=classic;html=1;rounded=0;" edge="1" parent="1"><mxGeometry width="50" height="50" relative="1" as="geometry"><mxPoint x="5571.910000000001" y="7790" as="sourcePoint"/><mxPoint x="3331.9100000000003" y="7790" as="targetPoint"/><Array as="points"><mxPoint x="5571.910000000001" y="7610"/><mxPoint x="3331.9100000000003" y="7610"/></Array></mxGeometry></mxCell><mxCell id="69" value="" style="endArrow=classic;html=1;rounded=0;dashed=1;" edge="1" parent="1"><mxGeometry width="50" height="50" relative="1" as="geometry"><mxPoint x="6275.910000000001" y="7840" as="sourcePoint"/><mxPoint x="6041.910000000001" y="7840" as="targetPoint"/></mxGeometry></mxCell><mxCell id="70" value="" style="endArrow=classic;html=1;rounded=0;dashed=1;" edge="1" parent="1"><mxGeometry width="50" height="50" relative="1" as="geometry"><mxPoint x="5875.910000000001" y="7835" as="sourcePoint"/><mxPoint x="5641.910000000001" y="7835" as="targetPoint"/></mxGeometry></mxCell><mxCell id="71" value="&amp;nbsp;" style="text;html=1;align=center;verticalAlign=middle;resizable=0;points=[];autosize=1;strokeColor=none;fillColor=none;" vertex="1" parent="1"><mxGeometry x="4466.91" y="7545" width="30" height="30" as="geometry"/></mxCell><mxCell id="72" value="18. เลือก class ที่ต้องการ&lt;div&gt;36. เลือก course ที่ต้องการ&lt;/div&gt;&lt;div&gt;52. เลือก quiz ที่ต้องการลบ แล้วกด &quot;ลบ quiz&quot; และ &quot;ยืนยันการลบ quiz&quot;&lt;br&gt;&lt;/div&gt;" style="text;html=1;align=center;verticalAlign=middle;resizable=0;points=[];autosize=1;strokeColor=none;fillColor=none;" vertex="1" parent="1"><mxGeometry x="2520.0000000000005" y="7730" width="370" height="60" as="geometry"/></mxCell><mxCell id="73" value="26. [ไม่พบข้อมูล course] emptyList&lt;div&gt;31. [พบข้อมูล course] courseList&lt;/div&gt;" style="text;html=1;align=center;verticalAlign=middle;resizable=0;points=[];autosize=1;strokeColor=none;fillColor=none;" vertex="1" parent="1"><mxGeometry x="6059.910000000001" y="7850" width="200" height="40" as="geometry"/></mxCell><mxCell id="74" value="27. returnError(&quot;ไม่พบข้อมูล course&quot;)&lt;div&gt;32. courseList&lt;/div&gt;" style="text;html=1;align=center;verticalAlign=middle;resizable=0;points=[];autosize=1;strokeColor=none;fillColor=none;" vertex="1" parent="1"><mxGeometry x="5661.280000000001" y="7850" width="220" height="40" as="geometry"/></mxCell><mxCell id="75" value="&lt;div&gt;28.&amp;nbsp;&lt;span style=&quot;color: light-dark(rgb(0, 0, 0), rgb(255, 255, 255)); background-color: transparent;&quot;&gt;errorResponse(404, &quot;ไม่พบข้อมูล course&quot;)&lt;/span&gt;&lt;/div&gt;&lt;div&gt;&lt;span style=&quot;color: light-dark(rgb(0, 0, 0), rgb(255, 255, 255)); background-color: transparent;&quot;&gt;33. successResponse(200, courseList)&lt;/span&gt;&lt;/div&gt;" style="text;html=1;align=center;verticalAlign=middle;resizable=0;points=[];autosize=1;strokeColor=none;fillColor=none;" vertex="1" parent="1"><mxGeometry x="4356.91" y="7565" width="260" height="40" as="geometry"/></mxCell><mxCell id="76" value=":QuizController" style="rounded=0;whiteSpace=wrap;html=1;" vertex="1" parent="1"><mxGeometry x="6615.910000000001" y="7805" width="130.91" height="40" as="geometry"/></mxCell><mxCell id="77" value=":QuizService" style="rounded=0;whiteSpace=wrap;html=1;" vertex="1" parent="1"><mxGeometry x="7015.910000000001" y="7805" width="130.91" height="40" as="geometry"/></mxCell><mxCell id="78" value=":QuizRepository" style="rounded=0;whiteSpace=wrap;html=1;" vertex="1" parent="1"><mxGeometry x="7415.910000000001" y="7805" width="130.91" height="40" as="geometry"/></mxCell><mxCell id="79" style="edgeStyle=orthogonalEdgeStyle;rounded=0;orthogonalLoop=1;jettySize=auto;html=1;endArrow=none;startFill=0;" edge="1" parent="1"><mxGeometry relative="1" as="geometry"><mxPoint x="7015.910000000001" y="7824.54" as="targetPoint"/><mxPoint x="6746.820000000001" y="7824.95" as="sourcePoint"/></mxGeometry></mxCell><mxCell id="80" style="edgeStyle=orthogonalEdgeStyle;rounded=0;orthogonalLoop=1;jettySize=auto;html=1;endArrow=none;startFill=0;" edge="1" parent="1"><mxGeometry relative="1" as="geometry"><mxPoint x="7415.910000000001" y="7824.549999999999" as="targetPoint"/><mxPoint x="7146.820000000001" y="7824.959999999999" as="sourcePoint"/></mxGeometry></mxCell><mxCell id="81" value="40. getQuizzes(courseID)&lt;div&gt;&amp;nbsp;56. deleteQuiz(quizID)&lt;/div&gt;" style="text;html=1;align=center;verticalAlign=middle;resizable=0;points=[];autosize=1;strokeColor=none;fillColor=none;" vertex="1" parent="1"><mxGeometry x="6790.820000000001" y="7755" width="160" height="40" as="geometry"/></mxCell><mxCell id="82" value="" style="endArrow=classic;html=1;rounded=0;" edge="1" parent="1"><mxGeometry width="50" height="50" relative="1" as="geometry"><mxPoint x="6755.910000000001" y="7815" as="sourcePoint"/><mxPoint x="6995.910000000001" y="7816" as="targetPoint"/></mxGeometry></mxCell><mxCell id="83" value="41. selectQuizzesByCourse(courseID)&lt;div&gt;57. deleteQuiz(quizOD)&lt;/div&gt;" style="text;html=1;align=center;verticalAlign=middle;resizable=0;points=[];autosize=1;strokeColor=none;fillColor=none;" vertex="1" parent="1"><mxGeometry x="7155.910000000001" y="7750" width="230" height="40" as="geometry"/></mxCell><mxCell id="84" value="" style="endArrow=classic;html=1;rounded=0;" edge="1" parent="1"><mxGeometry width="50" height="50" relative="1" as="geometry"><mxPoint x="7155.910000000001" y="7814" as="sourcePoint"/><mxPoint x="7395.910000000001" y="7815" as="targetPoint"/></mxGeometry></mxCell><mxCell id="85" value="" style="endArrow=classic;html=1;rounded=0;dashed=1;" edge="1" parent="1"><mxGeometry width="50" height="50" relative="1" as="geometry"><mxPoint x="7395.910000000001" y="7840" as="sourcePoint"/><mxPoint x="7161.910000000001" y="7840" as="targetPoint"/></mxGeometry></mxCell><mxCell id="86" value="" style="endArrow=classic;html=1;rounded=0;dashed=1;" edge="1" parent="1"><mxGeometry width="50" height="50" relative="1" as="geometry"><mxPoint x="6995.910000000001" y="7835" as="sourcePoint"/><mxPoint x="6761.910000000001" y="7835" as="targetPoint"/></mxGeometry></mxCell><mxCell id="87" style="edgeStyle=orthogonalEdgeStyle;rounded=0;orthogonalLoop=1;jettySize=auto;html=1;endArrow=none;startFill=0;entryX=0.5;entryY=1;entryDx=0;entryDy=0;exitX=0.5;exitY=1;exitDx=0;exitDy=0;" edge="1" parent="1" source="32" target="76"><mxGeometry relative="1" as="geometry"><mxPoint x="3415.9100000000003" y="8110" as="sourcePoint"/><mxPoint x="5570.910000000001" y="7855" as="targetPoint"/><Array as="points"><mxPoint x="3340.9100000000003" y="8160"/><mxPoint x="6680.910000000001" y="8160"/></Array></mxGeometry></mxCell><mxCell id="88" value="" style="endArrow=classic;html=1;rounded=0;" edge="1" parent="1"><mxGeometry width="50" height="50" relative="1" as="geometry"><mxPoint x="3355.9100000000003" y="8140" as="sourcePoint"/><mxPoint x="6665.910000000001" y="7860" as="targetPoint"/><Array as="points"><mxPoint x="3355.9100000000003" y="8130"/><mxPoint x="3355.9100000000003" y="8150"/><mxPoint x="4045.9100000000003" y="8150"/><mxPoint x="6665.910000000001" y="8150"/></Array></mxGeometry></mxCell><mxCell id="89" value="39. getQuizzes(courseID)&lt;div&gt;&amp;nbsp;55. deleteQuiz(quizID)&lt;/div&gt;" style="text;html=1;align=center;verticalAlign=middle;resizable=0;points=[];autosize=1;strokeColor=none;fillColor=none;" vertex="1" parent="1"><mxGeometry x="6034.910000000001" y="8090" width="160" height="40" as="geometry"/></mxCell><mxCell id="90" style="edgeStyle=orthogonalEdgeStyle;rounded=0;orthogonalLoop=1;jettySize=auto;html=1;endArrow=none;startFill=0;exitX=0.5;exitY=1;exitDx=0;exitDy=0;entryX=0.5;entryY=1;entryDx=0;entryDy=0;" edge="1" parent="1" source="23" target="78"><mxGeometry relative="1" as="geometry"><mxPoint x="6370.910000000001" y="7815" as="targetPoint"/><mxPoint x="5170.910000000001" y="7820" as="sourcePoint"/><Array as="points"><mxPoint x="5161.910000000001" y="7980"/><mxPoint x="7480.910000000001" y="7980"/></Array></mxGeometry></mxCell><mxCell id="91" value="" style="endArrow=classic;html=1;rounded=0;" edge="1" parent="1"><mxGeometry width="50" height="50" relative="1" as="geometry"><mxPoint x="7495.910000000001" y="7850" as="sourcePoint"/><mxPoint x="5145.910000000001" y="7870" as="targetPoint"/><Array as="points"><mxPoint x="7495.910000000001" y="7990"/><mxPoint x="5145.910000000001" y="7990"/></Array></mxGeometry></mxCell><mxCell id="92" value="&amp;nbsp;" style="text;html=1;align=center;verticalAlign=middle;resizable=0;points=[];autosize=1;strokeColor=none;fillColor=none;" vertex="1" parent="1"><mxGeometry x="6085.910000000001" y="8010" width="30" height="30" as="geometry"/></mxCell><mxCell id="93" value="&lt;div&gt;58. DELETE FROM quizzes WHERE id=?&lt;/div&gt;&lt;div&gt;60. DELETE FROM choice_quizzes WHERE id=?&lt;/div&gt;&lt;div&gt;62. DELETE FROM choice_answers WHERE id=?&lt;/div&gt;&lt;div&gt;64. DELETE FROM ordering_quizzes WHERE id=?&lt;/div&gt;&lt;div&gt;66. DELETE FROM ordering_answers WHERE id=?&lt;/div&gt;&lt;div&gt;68. DELETE FROM missing_words_quizzes WHERE id=?&lt;/div&gt;&lt;div&gt;70. DELETE FROM&amp;nbsp; quiz_histories WHERE id=?&lt;/div&gt;&lt;div&gt;72. DELETE FROM choice_histories WHERE id=?&lt;/div&gt;&lt;div&gt;74. DELETE FROM ordering_histories WHERE id=?&lt;/div&gt;&lt;div&gt;76. DELETE FROM missing_words_histories WHERE id=?&lt;/div&gt;" style="text;html=1;align=center;verticalAlign=middle;resizable=0;points=[];autosize=1;strokeColor=none;fillColor=none;" vertex="1" parent="1"><mxGeometry x="6895.910000000001" y="8000" width="340" height="160" as="geometry"/></mxCell><mxCell id="94" value="" style="endArrow=classic;html=1;rounded=0;dashed=1;" edge="1" parent="1"><mxGeometry width="50" height="50" relative="1" as="geometry"><mxPoint x="5175.910000000001" y="7880" as="sourcePoint"/><mxPoint x="7465.910000000001" y="7860" as="targetPoint"/><Array as="points"><mxPoint x="5175.910000000001" y="7970"/><mxPoint x="7465.910000000001" y="7970"/></Array></mxGeometry></mxCell><mxCell id="95" value="&lt;div&gt;59. success&lt;/div&gt;&lt;div&gt;61.&amp;nbsp;&lt;span style=&quot;background-color: transparent; color: light-dark(rgb(0, 0, 0), rgb(255, 255, 255));&quot;&gt;success&lt;/span&gt;&lt;/div&gt;&lt;div&gt;&lt;span style=&quot;background-color: transparent; color: light-dark(rgb(0, 0, 0), rgb(255, 255, 255));&quot;&gt;63.&amp;nbsp;&lt;/span&gt;&lt;span style=&quot;background-color: transparent; color: light-dark(rgb(0, 0, 0), rgb(255, 255, 255));&quot;&gt;success&lt;/span&gt;&lt;/div&gt;&lt;div&gt;&lt;span style=&quot;background-color: transparent; color: light-dark(rgb(0, 0, 0), rgb(255, 255, 255));&quot;&gt;65.&amp;nbsp;&lt;/span&gt;&lt;span style=&quot;background-color: transparent; color: light-dark(rgb(0, 0, 0), rgb(255, 255, 255));&quot;&gt;success&lt;/span&gt;&lt;/div&gt;&lt;div&gt;67.&amp;nbsp;&lt;span style=&quot;background-color: transparent; color: light-dark(rgb(0, 0, 0), rgb(255, 255, 255));&quot;&gt;success&lt;/span&gt;&lt;/div&gt;&lt;div&gt;&lt;span style=&quot;background-color: transparent; color: light-dark(rgb(0, 0, 0), rgb(255, 255, 255));&quot;&gt;69.&amp;nbsp;&lt;/span&gt;&lt;span style=&quot;background-color: transparent; color: light-dark(rgb(0, 0, 0), rgb(255, 255, 255));&quot;&gt;success&lt;/span&gt;&lt;/div&gt;&lt;div&gt;71.&amp;nbsp;&lt;span style=&quot;background-color: transparent; color: light-dark(rgb(0, 0, 0), rgb(255, 255, 255));&quot;&gt;success&lt;/span&gt;&lt;/div&gt;&lt;div&gt;&lt;span style=&quot;background-color: transparent; color: light-dark(rgb(0, 0, 0), rgb(255, 255, 255));&quot;&gt;73.&amp;nbsp;&lt;/span&gt;&lt;span style=&quot;background-color: transparent; color: light-dark(rgb(0, 0, 0), rgb(255, 255, 255));&quot;&gt;success&lt;/span&gt;&lt;/div&gt;&lt;div&gt;&lt;span style=&quot;background-color: transparent; color: light-dark(rgb(0, 0, 0), rgb(255, 255, 255));&quot;&gt;75.&amp;nbsp;&lt;/span&gt;&lt;span style=&quot;background-color: transparent; color: light-dark(rgb(0, 0, 0), rgb(255, 255, 255));&quot;&gt;success&lt;/span&gt;&lt;/div&gt;&lt;div&gt;&lt;span style=&quot;background-color: transparent; color: light-dark(rgb(0, 0, 0), rgb(255, 255, 255));&quot;&gt;77.&amp;nbsp;&lt;/span&gt;&lt;span style=&quot;background-color: transparent; color: light-dark(rgb(0, 0, 0), rgb(255, 255, 255));&quot;&gt;success&lt;/span&gt;&lt;/div&gt;" style="text;html=1;align=center;verticalAlign=middle;resizable=0;points=[];autosize=1;strokeColor=none;fillColor=none;" vertex="1" parent="1"><mxGeometry x="6485.640000000001" y="7800" width="90" height="160" as="geometry"/></mxCell><mxCell id="96" value="" style="endArrow=classic;html=1;rounded=0;" edge="1" parent="1" source="76"><mxGeometry width="50" height="50" relative="1" as="geometry"><mxPoint x="6685.910000000001" y="7800" as="sourcePoint"/><mxPoint x="3315.9100000000003" y="7790" as="targetPoint"/><Array as="points"><mxPoint x="6680.910000000001" y="7540"/><mxPoint x="3315.9100000000003" y="7540"/></Array></mxGeometry></mxCell><mxCell id="97" value="&amp;nbsp;" style="text;html=1;align=center;verticalAlign=middle;resizable=0;points=[];autosize=1;strokeColor=none;fillColor=none;" vertex="1" parent="1"><mxGeometry x="7275.550000000001" y="7875" width="30" height="30" as="geometry"/></mxCell><mxCell id="98" value="42. [Quiz Not Found] emptyList&lt;div&gt;47. [Found] quizData&lt;/div&gt;&lt;div&gt;78. [Deletion Failed] returnError(&quot;ไม่สามารถลบ quiz ได้&quot;)&lt;/div&gt;&lt;div&gt;83. [Deletion Successful] success&lt;/div&gt;&lt;div&gt;&lt;br&gt;&lt;/div&gt;" style="text;html=1;align=center;verticalAlign=middle;resizable=0;points=[];autosize=1;strokeColor=none;fillColor=none;" vertex="1" parent="1"><mxGeometry x="7110.64" y="7845" width="320" height="90" as="geometry"/></mxCell><mxCell id="99" value="43. returnError(&quot;ไม่พบข้อมูล quiz&quot;)&lt;div&gt;48. quizData&lt;/div&gt;&lt;div&gt;79. returnError(&quot;ไม่สามารถลบ quiz ได้&quot;)&lt;/div&gt;&lt;div&gt;84. success&lt;/div&gt;" style="text;html=1;align=center;verticalAlign=middle;resizable=0;points=[];autosize=1;strokeColor=none;fillColor=none;" vertex="1" parent="1"><mxGeometry x="6766.000000000001" y="7845" width="230" height="70" as="geometry"/></mxCell><mxCell id="100" value="44. errorResponse(404, &quot;ไม่พบข้อมู, quiz&quot;)&lt;div&gt;49. successResponse(200, quizData)&lt;/div&gt;&lt;div&gt;80. errorResponse(500, &quot;ไม่สามารถลบ quiz ได้&quot;)&lt;/div&gt;&lt;div&gt;85. successResponse(200, &quot;ลบ quiz สำเร็จ&quot;)&lt;/div&gt;" style="text;html=1;align=center;verticalAlign=middle;resizable=0;points=[];autosize=1;strokeColor=none;fillColor=none;" vertex="1" parent="1"><mxGeometry x="5512.000000000002" y="7470" width="270" height="70" as="geometry"/></mxCell></root></mxGraphModel></diagram></mxfile>